<svg width="36" height="36" viewBox="0 0 36 36" fill="none" xmlns="http://www.w3.org/2000/svg">
<g clip-path="url(#clip0_218_3945)">
<circle cx="18" cy="18" r="18" fill="#213147"/>
<path d="M6.37488 12.3558V23.3318C6.37488 24.0374 6.74448 24.6758 7.36048 25.0342L16.8693 30.5222C17.4741 30.8694 18.2245 30.8694 18.8293 30.5222L28.3381 25.0342C28.9429 24.687 29.3237 24.0374 29.3237 23.3318V12.3558C29.3237 11.6502 28.9541 11.0118 28.3381 10.6534L18.8293 5.16537C18.2245 4.81817 17.4741 4.81817 16.8693 5.16537L7.36048 10.6534C6.75568 11.0006 6.38608 11.6502 6.38608 12.3558H6.37488Z" fill="#213147"/>
<path d="M19.9157 19.9718L18.5605 23.6902C18.5269 23.791 18.5269 23.903 18.5605 24.015L20.8901 30.4102L23.5893 28.8534L20.3525 19.9718C20.2741 19.7702 19.9941 19.7702 19.9157 19.9718Z" fill="#12AAFF"/>
<path d="M22.6373 13.7222C22.5589 13.5206 22.2789 13.5206 22.2005 13.7222L20.8453 17.4406C20.8117 17.5414 20.8117 17.6534 20.8453 17.7654L24.6645 28.2374L27.3637 26.6806L22.6373 13.7334V13.7222Z" fill="#12AAFF"/>
<path d="M17.8437 5.57975C17.9109 5.57975 17.9781 5.60215 18.0341 5.63575L28.3157 11.5717C28.4389 11.6389 28.5061 11.7733 28.5061 11.9077V23.7797C28.5061 23.9141 28.4277 24.0485 28.3157 24.1157L18.0341 30.0517C17.9781 30.0853 17.9109 30.1077 17.8437 30.1077C17.7765 30.1077 17.7093 30.0853 17.6533 30.0517L7.37168 24.1157C7.24848 24.0485 7.18128 23.9141 7.18128 23.7797V11.8965C7.18128 11.7621 7.25968 11.6277 7.37168 11.5605L17.6533 5.62455C17.7093 5.59095 17.7765 5.56855 17.8437 5.56855V5.57975ZM17.8437 3.84375C17.4741 3.84375 17.1157 3.93335 16.7797 4.12375L6.49808 10.0597C5.83728 10.4405 5.43408 11.1349 5.43408 11.8965V23.7685C5.43408 24.5301 5.83728 25.2245 6.49808 25.6053L16.7797 31.5413C17.1045 31.7317 17.4741 31.8213 17.8437 31.8213C18.2133 31.8213 18.5717 31.7317 18.9077 31.5413L29.1893 25.6053C29.8501 25.2245 30.2533 24.5301 30.2533 23.7685V11.8965C30.2533 11.1349 29.8501 10.4405 29.1893 10.0597L18.8965 4.12375C18.5717 3.93335 18.2021 3.84375 17.8325 3.84375H17.8437Z" fill="#9DCCED"/>
<path d="M11.0341 28.2485L11.9861 25.6501L13.8901 27.2293L12.1093 28.8645L11.0341 28.2485Z" fill="#213147"/>
<path d="M16.97 11.0565H14.3604C14.17 11.0565 13.9908 11.1797 13.9236 11.3589L8.33484 26.6805L11.034 28.2373L17.194 11.3589C17.25 11.2021 17.138 11.0453 16.9812 11.0453L16.97 11.0565Z" fill="white"/>
<path d="M21.5397 11.0565H18.9301C18.7397 11.0565 18.5605 11.1797 18.4933 11.3589L12.1093 28.8533L14.8085 30.4101L21.7525 11.3589C21.8085 11.2021 21.6965 11.0453 21.5397 11.0453V11.0565Z" fill="white"/>
</g>
<defs>
<clipPath id="clip0_218_3945">
<rect width="36" height="36" fill="white"/>
</clipPath>
</defs>
</svg>
