<svg width="80" height="84" viewBox="0 0 80 84" fill="none" xmlns="http://www.w3.org/2000/svg">
<g filter="url(#filter0_d_240_2585)">
<path d="M4.15401 71.3058L21.4551 30.1233C20.6723 34.4589 25.3862 42.3023 30.5161 47.766C36.7511 54.4053 43.749 58.2991 47.3734 57.3064C34.3868 63.4866 21.3989 69.6636 8.40959 75.8373C7.51967 76.2731 6.17697 75.8172 5.17999 74.7448C4.17297 73.6832 3.74473 72.2535 4.15401 71.3058Z" fill="#8526FE"/>
<path d="M4.15403 71.3058L21.4552 30.1233C20.6734 34.4553 25.3773 42.288 30.5016 47.7506L5.16551 74.727C4.16965 73.669 3.74699 72.2487 4.15403 71.3058Z" fill="#AD59D4"/>
<path d="M29.6496 19C30.8814 19 31.88 17.9367 31.88 16.625C31.88 15.3133 30.8814 14.25 29.6496 14.25C28.4178 14.25 27.4192 15.3133 27.4192 16.625C27.4192 17.9367 28.4178 19 29.6496 19Z" fill="#DF982C"/>
<path d="M47.4928 23.75C48.7246 23.75 49.7232 22.6867 49.7232 21.375C49.7232 20.0633 48.7246 19 47.4928 19C46.261 19 45.2625 20.0633 45.2625 21.375C45.2625 22.6867 46.261 23.75 47.4928 23.75Z" fill="#D8A353"/>
<path d="M68.6816 33.25C69.9134 33.25 70.9119 32.1867 70.9119 30.875C70.9119 29.5633 69.9134 28.5 68.6816 28.5C67.4498 28.5 66.4512 29.5633 66.4512 30.875C66.4512 32.1867 67.4498 33.25 68.6816 33.25Z" fill="#05BFA9"/>
<path d="M69.7966 59.3752C71.0284 59.3752 72.0269 58.3119 72.0269 57.0002C72.0269 55.6886 71.0284 54.6252 69.7966 54.6252C68.5647 54.6252 67.5662 55.6886 67.5662 57.0002C67.5662 58.3119 68.5647 59.3752 69.7966 59.3752Z" fill="#FAB855"/>
<path d="M44.1471 7.125C45.3789 7.125 46.3775 6.06168 46.3775 4.75C46.3775 3.43832 45.3789 2.375 44.1471 2.375C42.9153 2.375 41.9167 3.43832 41.9167 4.75C41.9167 6.06168 42.9153 7.125 44.1471 7.125Z" fill="#5FE4D4"/>
<path d="M59.6228 4.33674L55.2156 6.72837L51.7172 3.00317L52.4911 8.2068L48.0828 10.5984L52.9695 11.4226L53.7435 16.625L55.9895 11.9308L60.8752 12.7549L57.3768 9.03093L59.6228 4.33674Z" fill="#FAB855"/>
<path d="M58.6837 43.9377L57.6209 47.4195H54.1838L56.9651 49.386L55.9024 52.7751L58.6837 50.5771L61.4649 52.7051L60.4022 49.3979L63.1835 47.4195H59.7464L58.6837 43.9377Z" fill="#D8A353"/>
<path d="M50.8383 32.0625C61.9468 32.0625 64.282 24.5421 66.1578 18.5001C67.7201 13.4722 68.9536 9.5 74.2574 9.5C74.5532 9.5 74.8368 9.37489 75.046 9.15219C75.2551 8.92949 75.3726 8.62745 75.3726 8.3125C75.3726 7.99756 75.2551 7.69551 75.046 7.47281C74.8368 7.25011 74.5532 7.125 74.2574 7.125C67.3421 7.125 65.6637 12.5293 64.0411 17.7543C62.1353 23.8913 60.3353 29.6875 50.8383 29.6875C50.5426 29.6875 50.2589 29.8126 50.0498 30.0353C49.8406 30.258 49.7231 30.5601 49.7231 30.875C49.7231 31.19 49.8406 31.492 50.0498 31.7147C50.2589 31.9374 50.5426 32.0625 50.8383 32.0625Z" fill="#DF982C"/>
<path d="M35.9225 24.6775C43.7378 18.0191 40.9621 13.5625 38.2778 9.25063C36.7767 6.84119 35.2255 4.34982 35.2255 1.1875C35.2255 0.872556 35.108 0.57051 34.8989 0.34781C34.6897 0.12511 34.4061 0 34.1103 0C33.8145 0 33.5309 0.12511 33.3217 0.34781C33.1126 0.57051 32.9951 0.872556 32.9951 1.1875C32.9951 5.06588 34.814 7.98594 36.4188 10.564C39.0283 14.7535 40.7524 17.5228 34.5285 22.8238C34.3023 23.0222 34.1586 23.3075 34.1284 23.6179C34.0982 23.9283 34.184 24.2389 34.3672 24.4825C34.5503 24.7261 34.8162 24.8831 35.1073 24.9196C35.3984 24.9561 35.6912 24.8691 35.9225 24.6775Z" fill="#05BFA9"/>
<path d="M74.2573 46.3127C74.5531 46.3127 74.8368 46.1876 75.0459 45.9649C75.255 45.7422 75.3725 45.4401 75.3725 45.1252C75.3725 44.8102 75.255 44.5082 75.0459 44.2855C74.8368 44.0628 74.5531 43.9377 74.2573 43.9377C71.0701 43.9377 68.5263 42.1315 66.0662 40.3847C62.0939 37.5644 57.9855 34.6467 52.2802 40.7231C52.0711 40.9458 51.9536 41.2478 51.9536 41.5627C51.9536 41.8776 52.0711 42.1796 52.2802 42.4022C52.4893 42.6249 52.7729 42.75 53.0686 42.75C53.3644 42.75 53.648 42.6249 53.8571 42.4022C58.2699 37.7045 60.8783 39.557 64.8284 42.3607C67.4379 44.2132 70.3943 46.3127 74.2573 46.3127Z" fill="#5FE4D4"/>
<path d="M22.0898 69.2929C11.9226 74.1724 24.1641 68.3239 13.9868 73.1808C11.4882 70.4322 9.16987 67.504 7.0481 64.4171L11.1922 54.5525C14.1087 60.021 17.7825 64.9903 22.0898 69.2929Z" fill="#DF982C"/>
<path d="M16.4157 62.7474L10.4874 69.0613C9.28669 67.5593 8.13946 66.0097 7.0481 64.4158L11.1922 54.5513C12.7265 57.4264 14.4732 60.1671 16.4157 62.7474Z" fill="#FAB855"/>
<path d="M30.5162 47.7647C37.7426 55.4585 46.0051 59.483 48.8366 56.4632C51.6458 53.4719 47.9812 44.7414 40.6656 36.9407C33.3398 29.1507 25.1432 25.2616 22.3329 28.2398C19.062 31.7192 24.5175 41.3772 30.5162 47.7647Z" fill="#E2E5E5"/>
<path d="M28.8933 51.7249C24.9076 45.981 22.4955 39.9141 21.9858 34.4943C21.4427 32.8437 21.2342 31.3486 21.4539 30.1255L15.1965 45.0441C16.7645 48.6505 18.7953 52.2748 21.2297 55.785C23.7283 59.3835 26.5501 62.7143 29.655 65.7303L38.1327 61.6976C34.7715 59.0245 31.5854 55.6211 28.8933 51.7249Z" fill="#DF982C"/>
<path d="M40.6578 36.9335L30.5017 47.7481C24.5087 41.3605 19.0654 31.7156 22.3318 28.2398C25.1421 25.264 33.3343 29.1495 40.6578 36.9335Z" fill="#8526FE"/>
<path d="M21.4539 30.1255L15.1965 45.0441C16.7645 48.6505 18.7953 52.2748 21.2297 55.785C21.474 56.1365 21.7349 56.4714 21.9847 56.8181L28.0213 50.3902C24.5619 45.0429 22.452 39.4889 21.9814 34.4836C21.4416 32.8366 21.2342 31.3451 21.4539 30.1255Z" fill="#FAB855"/>
</g>
<defs>
<filter id="filter0_d_240_2585" x="0" y="0" width="79.3726" height="84.0012" filterUnits="userSpaceOnUse" color-interpolation-filters="sRGB">
<feFlood flood-opacity="0" result="BackgroundImageFix"/>
<feColorMatrix in="SourceAlpha" type="matrix" values="0 0 0 0 0 0 0 0 0 0 0 0 0 0 0 0 0 0 127 0" result="hardAlpha"/>
<feOffset dy="4"/>
<feGaussianBlur stdDeviation="2"/>
<feComposite in2="hardAlpha" operator="out"/>
<feColorMatrix type="matrix" values="0 0 0 0 0 0 0 0 0 0 0 0 0 0 0 0 0 0 0.25 0"/>
<feBlend mode="normal" in2="BackgroundImageFix" result="effect1_dropShadow_240_2585"/>
<feBlend mode="normal" in="SourceGraphic" in2="effect1_dropShadow_240_2585" result="shape"/>
</filter>
</defs>
</svg>
