<svg width="25" height="25" viewBox="0 0 25 25" fill="none" xmlns="http://www.w3.org/2000/svg">
<path fill-rule="evenodd" clip-rule="evenodd" d="M15.861 3.41158C17.0764 2.19614 19.047 2.19614 20.2625 3.41158L21.5884 4.73753C22.8039 5.95297 22.8039 7.9236 21.5884 9.13904L9.13904 21.5884C8.55536 22.1721 7.76373 22.5 6.93828 22.5H3.34882C2.88003 22.5 2.5 22.12 2.5 21.6512V18.0617C2.5 17.2363 2.82791 16.4446 3.41158 15.861L15.861 3.41158ZM19.0621 4.612C18.5096 4.05952 17.6138 4.05952 17.0614 4.612L14.7351 6.93828L18.0617 10.2649L20.388 7.93863C20.9405 7.38615 20.9405 6.49041 20.388 5.93794L19.0621 4.612ZM16.8613 11.4653L13.5347 8.1387L4.612 17.0614C4.34669 17.3267 4.19764 17.6865 4.19764 18.0617V20.8024H6.93828C7.31349 20.8024 7.67332 20.6533 7.93863 20.388L16.8613 11.4653Z" fill="#030D45"/>
</svg>
