<svg width="21" height="20" viewBox="0 0 21 20" fill="none" xmlns="http://www.w3.org/2000/svg">
<g clip-path="url(#clip0_223_3091)">
<path d="M8.22549 0C3.83687 0 0.278687 3.582 0.278687 8C0.278687 12.418 3.83687 16 8.22549 16C12.6141 16 16.1723 12.418 16.1723 8C16.1723 3.582 12.6141 0 8.22549 0ZM7.23214 7C7.23214 6.73478 7.33679 6.48043 7.52308 6.29289C7.70937 6.10536 7.96204 6 8.22549 6C8.48894 6 8.7416 6.10536 8.92789 6.29289C9.11418 6.48043 9.21884 6.73478 9.21884 7V12C9.21884 12.2652 9.11418 12.5196 8.92789 12.7071C8.7416 12.8946 8.48894 13 8.22549 13C7.96204 13 7.70937 12.8946 7.52308 12.7071C7.33679 12.5196 7.23214 12.2652 7.23214 12V7ZM8.22549 5.016C8.09501 5.01597 7.96581 4.99006 7.84527 4.93976C7.72474 4.88947 7.61522 4.81576 7.52298 4.72286C7.43074 4.62995 7.35758 4.51967 7.30768 4.3983C7.25777 4.27693 7.23211 4.14685 7.23214 4.0155C7.23217 3.88414 7.2579 3.75408 7.30787 3.63274C7.35783 3.5114 7.43104 3.40115 7.52333 3.30829C7.61562 3.21543 7.72517 3.14178 7.84573 3.09154C7.96629 3.04131 8.0955 3.01547 8.22598 3.0155C8.4895 3.01557 8.7422 3.12101 8.92849 3.30864C9.11478 3.49627 9.2194 3.75072 9.21933 4.016C9.21927 4.28128 9.11452 4.53567 8.92814 4.72321C8.74176 4.91075 8.48901 5.01607 8.22549 5.016Z" fill="#B5B2AE"/>
</g>
<defs>
<clipPath id="clip0_223_3091">
<rect width="19.867" height="20" fill="white" transform="translate(0.278687)"/>
</clipPath>
</defs>
</svg>
