<svg width="21" height="21" viewBox="0 0 21 21" fill="none" xmlns="http://www.w3.org/2000/svg">
<g clip-path="url(#clip0_218_3999)">
<path d="M10.5 21C16.299 21 21 16.299 21 10.5C21 4.70101 16.299 0 10.5 0C4.70101 0 0 4.70101 0 10.5C0 16.299 4.70101 21 10.5 21Z" fill="#FF0420"/>
<path d="M7.43824 13.2888C6.81244 13.2888 6.30004 13.1418 5.90104 12.8478C5.50624 12.5496 5.30884 12.1212 5.30884 11.571C5.30884 11.4534 5.32144 11.3148 5.34664 11.1468C5.41384 10.7688 5.51044 10.3152 5.63644 9.78179C5.99344 8.33699 6.91744 7.61459 8.40424 7.61459C8.80744 7.61459 9.17284 7.68179 9.49204 7.82039C9.81124 7.95059 10.0632 8.15219 10.248 8.42099C10.4328 8.68559 10.5252 9.00059 10.5252 9.36599C10.5252 9.47519 10.5126 9.61379 10.4874 9.78179C10.4076 10.248 10.3152 10.7058 10.2018 11.1468C10.017 11.865 9.70204 12.4068 9.24844 12.7638C8.79904 13.1166 8.19424 13.2888 7.43824 13.2888ZM7.55164 12.1548C7.84564 12.1548 8.09344 12.0666 8.29924 11.8944C8.50924 11.7222 8.66044 11.4576 8.74864 11.0964C8.87044 10.6008 8.96284 10.1724 9.02584 9.80279C9.04684 9.69359 9.05944 9.58019 9.05944 9.46259C9.05944 8.98379 8.81164 8.74439 8.31184 8.74439C8.01784 8.74439 7.76584 8.83259 7.55584 9.00479C7.35004 9.17699 7.20304 9.44159 7.11484 9.80279C7.01824 10.1556 6.92584 10.584 6.82924 11.0964C6.80824 11.2014 6.79564 11.3106 6.79564 11.4282C6.79144 11.9154 7.04764 12.1548 7.55164 12.1548Z" fill="white"/>
<path d="M10.8907 13.2132C10.8319 13.2132 10.7899 13.1964 10.7563 13.1586C10.7311 13.1166 10.7227 13.0704 10.7311 13.0158L11.8189 7.8918C11.8273 7.833 11.8567 7.7868 11.9071 7.749C11.9533 7.7112 12.0037 7.6944 12.0583 7.6944H14.1541C14.7379 7.6944 15.2041 7.8162 15.5569 8.0556C15.9139 8.2992 16.0945 8.6478 16.0945 9.1056C16.0945 9.2358 16.0777 9.3744 16.0483 9.5172C15.9181 10.122 15.6535 10.5672 15.2503 10.857C14.8555 11.1468 14.3137 11.2896 13.6249 11.2896H12.5623L12.2011 13.0158C12.1885 13.0746 12.1633 13.1208 12.1129 13.1586C12.0667 13.1964 12.0163 13.2132 11.9617 13.2132H10.8907ZM13.6795 10.2018C13.9021 10.2018 14.0911 10.143 14.2549 10.0212C14.4229 9.8994 14.5321 9.7272 14.5867 9.5004C14.6035 9.4122 14.6119 9.3324 14.6119 9.2652C14.6119 9.114 14.5657 8.9964 14.4775 8.9166C14.3893 8.8326 14.2339 8.7906 14.0197 8.7906H13.0747L12.7765 10.2018H13.6795Z" fill="white"/>
</g>
<defs>
<clipPath id="clip0_218_3999">
<rect width="21" height="21" fill="white"/>
</clipPath>
</defs>
</svg>
