<svg width="36" height="36" viewBox="0 0 36 36" fill="none" xmlns="http://www.w3.org/2000/svg">
<g clip-path="url(#clip0_218_3979)">
<path d="M18 36C27.9411 36 36 27.9411 36 18C36 8.05887 27.9411 0 18 0C8.05887 0 0 8.05887 0 18C0 27.9411 8.05887 36 18 36Z" fill="#FF0420"/>
<path d="M12.7512 22.7808C11.6784 22.7808 10.8 22.5288 10.116 22.0248C9.43923 21.5136 9.10083 20.7792 9.10083 19.836C9.10083 19.6344 9.12243 19.3968 9.16563 19.1088C9.28083 18.4608 9.44643 17.6832 9.66243 16.7688C10.2744 14.292 11.8584 13.0536 14.4072 13.0536C15.0984 13.0536 15.7248 13.1688 16.272 13.4064C16.8192 13.6296 17.2512 13.9752 17.568 14.436C17.8848 14.8896 18.0432 15.4296 18.0432 16.056C18.0432 16.2432 18.0216 16.4808 17.9784 16.7688C17.8416 17.568 17.6832 18.3528 17.4888 19.1088C17.172 20.34 16.632 21.2688 15.8544 21.8808C15.084 22.4856 14.0472 22.7808 12.7512 22.7808ZM12.9456 20.8368C13.4496 20.8368 13.8744 20.6856 14.2272 20.3904C14.5872 20.0952 14.8464 19.6416 14.9976 19.0224C15.2064 18.1728 15.3648 17.4384 15.4728 16.8048C15.5088 16.6176 15.5304 16.4232 15.5304 16.2216C15.5304 15.4008 15.1056 14.9904 14.2488 14.9904C13.7448 14.9904 13.3128 15.1416 12.9528 15.4368C12.6 15.732 12.348 16.1856 12.1968 16.8048C12.0312 17.4096 11.8728 18.144 11.7072 19.0224C11.6712 19.2024 11.6496 19.3896 11.6496 19.5912C11.6424 20.4264 12.0816 20.8368 12.9456 20.8368Z" fill="white"/>
<path d="M18.6696 22.6512C18.5688 22.6512 18.4968 22.6224 18.4392 22.5576C18.396 22.4856 18.3816 22.4064 18.396 22.3128L20.2608 13.5288C20.2752 13.428 20.3256 13.3488 20.412 13.284C20.4912 13.2192 20.5776 13.1904 20.6712 13.1904H24.264C25.2648 13.1904 26.064 13.3992 26.6688 13.8096C27.2808 14.2272 27.5904 14.8248 27.5904 15.6096C27.5904 15.8328 27.5616 16.0704 27.5112 16.3152C27.288 17.352 26.8344 18.1152 26.1432 18.612C25.4664 19.1088 24.5376 19.3536 23.3568 19.3536H21.5352L20.916 22.3128C20.8944 22.4136 20.8512 22.4928 20.7648 22.5576C20.6856 22.6224 20.5992 22.6512 20.5056 22.6512H18.6696ZM23.4504 17.4888C23.832 17.4888 24.156 17.388 24.4368 17.1792C24.7248 16.9704 24.912 16.6752 25.0056 16.2864C25.0344 16.1352 25.0488 15.9984 25.0488 15.8832C25.0488 15.624 24.9696 15.4224 24.8184 15.2856C24.6672 15.1416 24.4008 15.0696 24.0336 15.0696H22.4136L21.9024 17.4888H23.4504Z" fill="white"/>
</g>
<defs>
<clipPath id="clip0_218_3979">
<rect width="36" height="36" fill="white"/>
</clipPath>
</defs>
</svg>
