<svg width="21" height="21" viewBox="0 0 21 21" fill="none" xmlns="http://www.w3.org/2000/svg">
<g clip-path="url(#clip0_218_4028)">
<circle cx="10.5" cy="10.5" r="10.5" fill="#8247E5"/>
<path d="M13.8755 8.12345C13.6356 7.98637 13.3272 7.98637 13.053 8.12345L11.134 9.25432L9.83176 9.97397L7.94696 11.1048C7.70708 11.2419 7.39866 11.2419 7.12451 11.1048L5.65095 10.2139C5.41106 10.0768 5.23972 9.80263 5.23972 9.49421V7.78076C5.23972 7.50661 5.3768 7.23246 5.65095 7.06111L7.12451 6.20439C7.36439 6.06731 7.67281 6.06731 7.94696 6.20439L9.42053 7.09538C9.66041 7.23246 9.83176 7.50661 9.83176 7.81503V8.9459L11.134 8.19199V7.02684C11.134 6.75269 10.9969 6.47854 10.7227 6.3072L7.98123 4.69656C7.74135 4.55948 7.43293 4.55948 7.15878 4.69656L4.34873 6.34147C4.07458 6.47854 3.9375 6.75269 3.9375 7.02684V10.2481C3.9375 10.5223 4.07458 10.7964 4.34873 10.9678L7.12451 12.5784C7.36439 12.7155 7.67281 12.7155 7.94696 12.5784L9.83176 11.4818L11.134 10.7279L13.0188 9.63128C13.2586 9.49421 13.5671 9.49421 13.8412 9.63128L15.3148 10.488C15.5547 10.6251 15.726 10.8992 15.726 11.2077V12.9211C15.726 13.1953 15.5889 13.4694 15.3148 13.6407L13.8755 14.4975C13.6356 14.6345 13.3272 14.6345 13.053 14.4975L11.5795 13.6407C11.3396 13.5037 11.1682 13.2295 11.1682 12.9211V11.8245L9.86602 12.5784V13.7093C9.86602 13.9834 10.0031 14.2576 10.2773 14.4289L13.053 16.0396C13.2929 16.1766 13.6013 16.1766 13.8755 16.0396L16.6513 14.4289C16.8912 14.2919 17.0625 14.0177 17.0625 13.7093V10.4537C17.0625 10.1796 16.9254 9.90543 16.6513 9.73409L13.8755 8.12345Z" fill="white"/>
</g>
<defs>
<clipPath id="clip0_218_4028">
<rect width="21" height="21" fill="white"/>
</clipPath>
</defs>
</svg>
