<svg width="511" height="171" viewBox="0 0 511 171" fill="none" xmlns="http://www.w3.org/2000/svg">
<path d="M2 169C7.0274 158.926 50.8879 94.2379 85.7387 112.576C108.88 124.753 113.59 162.836 142.97 141.855C165.46 125.794 158.447 94.9298 183.668 80.7464C199.391 71.9046 235.115 90.8807 257.433 81.081C270.028 75.5507 281.148 69.0158 293.513 63.2212C302.747 58.8936 320.083 72.9158 333.34 67.7384C368.956 53.8291 372.075 17.5799 408.645 6.75565C415.494 4.72839 456.169 -2.84838 470.376 6.75577C470.376 6.75577 478.4 11.561 488.134 15.8188C491.587 17.329 497.457 29.5447 509 67.7384" stroke="black" stroke-width="3" stroke-linecap="round"/>
</svg>
